<svg xmlns="http://www.w3.org/2000/svg" xmlns:xlink="http://www.w3.org/1999/xlink" version="1.1" x="0px" y="0px" width="286.3px" height="286.3px" viewBox="0 0 286.3 286.3" enable-background="new 0 0 286.3 286.3" xml:space="preserve"><style>.style0{stroke:	#000000;stroke-miterlimit:	10;fill:	none;}.style1{stroke:	#000000;stroke-miterlimit:	10;}</style><g><g><g><g><path d="M264.33 143c0-66.98-54.3-121.29-121.29-121.29C76.06 21.7 21.8 76 21.8 143c0 67 54.3 121.3 121.3 121.3 C210.03 264.3 264.3 210 264.3 143z M143.04 0.31c78.81 0 142.7 63.9 142.7 142.69c0 78.81-63.881 142.7-142.69 142.7 C64.23 285.7 0.3 221.8 0.3 143C0.35 64.2 64.2 0.3 143 0.31z"/></g><g><path d="M285.73 143c0 78.81-63.881 142.7-142.69 142.7 C64.23 285.7 0.3 221.8 0.3 143C0.35 64.2 64.2 0.3 143 0.31C221.85 0.3 285.7 64.2 285.7 143z" class="style0"/><path d="M264.33 143c0 66.99-54.3 121.29-121.29 121.3 c-66.98 0-121.29-54.3-121.29-121.29c0-66.98 54.31-121.29 121.29-121.29C210.03 21.7 264.3 76 264.3 143z" class="style0"/></g></g></g><rect x="114.5" y="43.1" width="21.4" height="171.2" class="style1"/><rect x="150.2" y="78.8" width="21.4" height="164.1" class="style1"/><circle cx="160.9" cy="53.8" r="10.7" class="style1"/></g></svg>