<?xml version="1.0" encoding="UTF-8" standalone="no"?>
<!DOCTYPE svg PUBLIC "-//W3C//DTD SVG 1.1//EN" "http://www.w3.org/Graphics/SVG/1.1/DTD/svg11.dtd">
<svg width="100%" height="100%" viewBox="0 0 287 287" version="1.1" xmlns="http://www.w3.org/2000/svg" xmlns:xlink="http://www.w3.org/1999/xlink" xml:space="preserve" style="fill-rule:evenodd;clip-rule:evenodd;stroke-miterlimit:10;">
    <g>
        <g>
            <path d="M264.33,143C264.33,76.02 210.03,21.71 143.04,21.71C76.06,21.7 21.8,76 21.8,143C21.8,210 76.1,264.3 143.1,264.3C210.03,264.3 264.3,210 264.3,143L264.33,143ZM143.04,0.31C221.85,0.31 285.74,64.21 285.74,143C285.74,221.81 221.859,285.7 143.05,285.7C64.23,285.7 0.3,221.8 0.3,143C0.35,64.2 64.2,0.3 143,0.31L143.04,0.31Z" style="fill-rule:nonzero;"/>
            <g>
                <path d="M285.73,143C285.73,221.81 221.849,285.7 143.04,285.7C64.23,285.7 0.3,221.8 0.3,143C0.35,64.2 64.2,0.3 143,0.31C221.85,0.3 285.7,64.2 285.7,143L285.73,143Z" style="fill:none;stroke:black;stroke-width:1px;"/>
                <path d="M264.33,143C264.33,209.99 210.03,264.29 143.04,264.3C76.06,264.3 21.75,210 21.75,143.01C21.75,76.03 76.06,21.72 143.04,21.72C210.03,21.7 264.3,76 264.3,143L264.33,143Z" style="fill:none;stroke:black;stroke-width:1px;"/>
            </g>
        </g>
    </g>
</svg>
